<svg width="5024" height="3430" viewBox="0 0 5024 3430" fill="none" xmlns="http://www.w3.org/2000/svg">
<rect x="2158" y="973" width="100" height="2457" fill="#F7A55A"/>
<rect x="2759" y="970" width="100" height="2457" fill="#F7A55A"/>
<rect x="2255" y="970" width="508" height="2457" fill="#F5851D"/>
<circle cx="2509" cy="972" r="254" fill="#F5851D"/>
<path d="M135.98 0.54834L2066.78 1310.41L2066.78 1427.02L299.769 406.837L135.98 0.54834Z" fill="url(#paint0_angular)"/>
<path d="M413.066 605.101L2022.13 1729.21L2014.07 1841.17L529.158 983.852L413.066 605.101Z" fill="url(#paint1_angular)"/>
<path d="M551.61 1121.49L1968.23 2134.49L1955.34 2243.66L639.171 1483.77L551.61 1121.49Z" fill="url(#paint2_angular)"/>
<path d="M4888.02 0.54834L2957.22 1310.41L2957.22 1427.02L4724.23 406.837L4888.02 0.54834Z" fill="url(#paint3_angular)"/>
<path d="M4610.93 605.101L3001.87 1729.21L3009.93 1841.17L4494.84 983.852L4610.93 605.101Z" fill="url(#paint4_angular)"/>
<path d="M4472.39 1121.49L3055.77 2134.49L3068.66 2243.66L4384.83 1483.77L4472.39 1121.49Z" fill="url(#paint5_angular)"/>
<defs>
<radialGradient id="paint0_angular" cx="0" cy="0" r="1" gradientUnits="userSpaceOnUse" gradientTransform="translate(1101.38 713.784) rotate(120) scale(134.981 1192.68)">
<stop stop-color="#F5851D"/>
<stop offset="1" stop-color="#F7955D"/>
</radialGradient>
<radialGradient id="paint1_angular" cx="0" cy="0" r="1" gradientUnits="userSpaceOnUse" gradientTransform="translate(1213.57 1223.13) rotate(120) scale(134.981 1002.27)">
<stop stop-color="#F5851D"/>
<stop offset="1" stop-color="#F7955D"/>
</radialGradient>
<radialGradient id="paint2_angular" cx="0" cy="0" r="1" gradientUnits="userSpaceOnUse" gradientTransform="translate(1253.48 1682.58) rotate(120) scale(134.981 888.377)">
<stop stop-color="#F5851D"/>
<stop offset="1" stop-color="#F7955D"/>
</radialGradient>
<radialGradient id="paint3_angular" cx="0" cy="0" r="1" gradientUnits="userSpaceOnUse" gradientTransform="translate(3922.62 713.784) rotate(60) scale(134.981 1192.68)">
<stop stop-color="#F5851D"/>
<stop offset="1" stop-color="#F7955D"/>
</radialGradient>
<radialGradient id="paint4_angular" cx="0" cy="0" r="1" gradientUnits="userSpaceOnUse" gradientTransform="translate(3810.43 1223.13) rotate(60) scale(134.981 1002.27)">
<stop stop-color="#F5851D"/>
<stop offset="1" stop-color="#F7955D"/>
</radialGradient>
<radialGradient id="paint5_angular" cx="0" cy="0" r="1" gradientUnits="userSpaceOnUse" gradientTransform="translate(3770.52 1682.58) rotate(60) scale(134.981 888.377)">
<stop stop-color="#F5851D"/>
<stop offset="1" stop-color="#F7955D"/>
</radialGradient>
</defs>
</svg>
